<svg width="1001" height="155" viewBox="0 0 1001 155" fill="none" xmlns="http://www.w3.org/2000/svg">
<path d="M201.683 95.6686C191.037 108.176 177.647 113.594 166.399 115.801C173.161 126.236 178.049 138.208 180.325 151.184L167.202 153.525C164.792 139.88 159.034 127.506 150.933 117.273C148.857 114.597 146.648 112.123 144.237 109.715C137.743 103.294 130.177 98.0096 121.875 94.1971C121.005 93.7958 120.134 93.3944 119.197 92.9931C110.694 89.4481 101.454 87.3077 91.813 87.0402C91.1435 86.9733 90.5409 86.9734 89.8714 86.9734H89.2688C84.4482 86.9734 79.7615 87.4415 75.1417 88.3111C46.5528 93.7289 22.2489 115.199 13.4111 144.362L0.623047 140.549C12.3398 101.488 48.0258 74.2649 87.7959 73.5961C95.3616 68.1114 103.664 59.2824 106.877 46.0389C111.363 27.5114 102.86 12.1275 100.115 7.84673L111.43 0.689941C115.782 7.57924 125.423 26.1737 119.866 49.1826C117.188 60.0182 111.966 68.5796 105.94 75.1344C111.966 76.2715 117.791 78.0106 123.415 80.2847C132.32 78.0775 149.794 71.5226 158.431 53.4633C166.6 36.1397 161.377 19.4181 159.636 14.6692L172.157 9.92019C174.366 15.94 180.994 37.0761 170.483 59.1486C162.984 74.9338 150.33 83.7628 139.484 88.7124C145.911 92.9931 151.87 98.0096 157.025 103.762C166.867 102.959 180.994 99.4142 191.439 87.0402C203.825 72.459 203.089 54.9348 202.62 49.9183L215.944 48.5805C216.747 56.7407 217.015 77.6093 201.683 95.6686Z" fill="url(#paint0_radial_1303_629)" stroke="#222221" stroke-miterlimit="10"/>
<path d="M985.099 95.6686C974.453 108.176 961.063 113.594 949.815 115.801C956.577 126.236 961.465 138.208 963.741 151.184L950.618 153.525C948.208 139.88 942.45 127.506 934.349 117.273C932.273 114.597 930.064 112.123 927.653 109.715C921.159 103.294 913.593 98.0096 905.291 94.1971C904.421 93.7958 903.55 93.3944 902.613 92.9931C894.11 89.4481 884.87 87.3077 875.229 87.0402C874.56 86.9733 873.957 86.9734 873.287 86.9734H872.685C867.864 86.9734 863.178 87.4415 858.558 88.3111C829.969 93.7289 805.665 115.199 796.827 144.362L784.039 140.549C795.756 101.488 831.442 74.2649 871.212 73.5961C878.778 68.1114 887.08 59.2824 890.293 46.0389C894.779 27.5114 886.276 12.1275 883.531 7.84673L894.846 0.689941C899.198 7.57924 908.839 26.1737 903.282 49.1826C900.604 60.0182 895.382 68.5796 889.356 75.1344C895.382 76.2715 901.207 78.0106 906.831 80.2847C915.736 78.0775 933.21 71.5226 941.847 53.4633C950.016 36.1397 944.793 19.4181 943.052 14.6692L955.573 9.92019C957.782 15.94 964.41 37.0761 953.899 59.1486C946.4 74.9338 933.746 83.7628 922.9 88.7124C929.327 92.9931 935.286 98.0096 940.441 103.762C950.283 102.959 964.41 99.4142 974.855 87.0402C987.241 72.459 986.505 54.9348 986.036 49.9183L999.36 48.5805C1000.16 56.7407 1000.43 77.6093 985.099 95.6686Z" fill="url(#paint1_radial_1303_629)" stroke="#222221" stroke-miterlimit="10"/>
<defs>
<radialGradient id="paint0_radial_1303_629" cx="0" cy="0" r="1" gradientUnits="userSpaceOnUse" gradientTransform="translate(-415.423 205.83) scale(3.34765 3.34432)">
<stop offset="0.06" stop-color="#292929"/>
<stop offset="0.7" stop-color="#24292E"/>
</radialGradient>
<radialGradient id="paint1_radial_1303_629" cx="0" cy="0" r="1" gradientUnits="userSpaceOnUse" gradientTransform="translate(368.06 -914.851) scale(3.34765 3.34432)">
<stop offset="0.06" stop-color="#292929"/>
<stop offset="0.7" stop-color="#24292E"/>
</radialGradient>
</defs>
</svg>
